# xmcd
#
# Track frame offsets:
#	150
#	13867
#	35632
#	51052
#	66940
#	81042
#	96540
#	111485
#	123830
#	134600
#	156312
#	174355
#	192682
#
# Disc length: 2798 seconds
#
# Revision: 0
# Processed by: cddbd v1.5.1PL0 Copyright (c) Steve Scherf et al.
# Submitted via: dBpowerAMP V4.0
#
DISCID=bf0aec0d
DTITLE=Guto e Nando - Ela é Show
DYEAR=1900
DGENRE=
TTITLE0=Ela é show
TTITLE1=Tô nem aí
TTITLE2=Ainda assim te amo
TTITLE3=Tô indo te buscar
TTITLE4=Fogo no salão
TTITLE5=Ainda existem cowboys
TTITLE6=No ponteio da viola
TTITLE7=Polka mix
TTITLE8=Quebradas da noite
TTITLE9=Hello
TTITLE10=Amado mix
TTITLE11=Chuva de areia
TTITLE12=Tô nem aí - Radio mix
EXTD=
EXTT0=
EXTT1=
EXTT2=
EXTT3=
EXTT4=
EXTT5=
EXTT6=
EXTT7=
EXTT8=
EXTT9=
EXTT10=
EXTT11=
EXTT12=
PLAYORDER=
